<svg version="1.1" id="Layer_1" xmlns="http://www.w3.org/2000/svg" xmlns:xlink="http://www.w3.org/1999/xlink" x="0px" y="0px"
	 width="100%" viewBox="0 0 192 192" enable-background="new 0 0 192 192" xml:space="preserve">
<path fill="#000000" opacity="1.000000" stroke="none" 
	d="
M129.647232,106.293541 
	C130.158768,101.800255 128.575653,100.275047 124.347229,100.282494 
	C111.648903,100.304871 111.648697,100.147713 111.651077,87.393333 
	C111.652443,80.067680 111.757729,72.739883 111.607353,65.417343 
	C111.540100,62.142426 112.423767,60.496887 116.064034,60.612011 
	C122.384331,60.811890 128.720367,60.812691 135.040451,60.608208 
	C138.798508,60.486614 139.395111,62.375782 139.402771,65.525780 
	C139.410507,68.712013 138.716599,70.634987 135.003693,70.419418 
	C131.685547,70.226768 128.346527,70.411476 125.016922,70.393311 
	C122.548035,70.379837 121.345352,71.528778 121.364700,74.034264 
	C121.398132,78.362694 121.419426,82.692581 121.341644,87.019989 
	C121.296631,89.524048 122.322182,90.717026 124.884712,90.649651 
	C127.546478,90.579666 130.238617,90.892509 132.869934,90.604103 
	C137.716873,90.072861 139.676468,91.577057 139.468246,96.865829 
	C139.055923,107.338615 139.200958,117.842079 139.419479,128.326523 
	C139.502472,132.308319 138.076965,133.594223 134.207336,133.438171 
	C128.056839,133.190125 121.885468,133.218857 115.730858,133.399994 
	C111.707703,133.518387 111.716286,131.064606 111.625473,128.200485 
	C111.529594,125.176544 112.366234,123.703400 115.780151,123.567451 
	C120.175079,123.392464 126.109749,125.818932 128.618011,122.342659 
	C131.600479,118.209167 129.283157,112.031075 129.647232,106.293541 
z"/>
<path fill="#000000" opacity="1.000000" stroke="none" 
	d="
M73.880981,70.743217 
	C71.632408,72.668900 72.288216,74.969345 72.280457,77.051178 
	C72.217773,93.863327 72.147842,110.676514 72.289612,127.487610 
	C72.323776,131.539688 71.477592,133.529755 66.802536,133.502640 
	C62.209946,133.476013 61.691658,131.287247 61.711433,127.611732 
	C61.803677,110.466988 61.598850,93.319466 61.831066,76.177414 
	C61.894363,71.504578 60.324455,69.820526 55.794250,70.356377 
	C53.660557,70.608765 51.464214,70.278519 49.309200,70.415665 
	C45.808758,70.638428 43.683735,69.894196 43.646423,65.615379 
	C43.610558,61.501575 45.320885,60.556747 49.027081,60.604134 
	C61.010162,60.757347 72.997833,60.760384 84.980698,60.597626 
	C88.719582,60.546844 90.323746,61.555244 90.344551,65.630455 
	C90.366722,69.974007 88.225403,70.551903 84.742752,70.423882 
	C81.257858,70.295792 77.760513,70.506477 73.880981,70.743217 
z"/>
<path fill="#000000" opacity="1.000000" stroke="none" 
	d="
M143.029938,131.691986 
	C143.413803,128.664413 140.821152,124.961105 145.322372,123.824783 
	C146.821381,123.446350 148.996567,123.134644 149.702408,125.098312 
	C150.542801,127.436417 151.047897,130.330246 149.384659,132.271057 
	C147.752899,134.175095 145.219315,133.826706 143.029938,131.691986 
z"/>
<path fill="#000000" opacity="1.000000" stroke="none" 
	d="
M98.244087,126.237991 
	C98.249458,128.166870 98.320068,129.654617 98.159538,131.117004 
	C97.908058,133.407990 96.093361,133.276031 94.432549,133.327698 
	C92.488747,133.388153 91.188828,132.668259 91.271873,130.531631 
	C91.353905,128.421097 91.580200,126.316162 91.760246,123.988556 
	C94.306946,124.010201 96.906418,122.313599 98.244087,126.237991 
z"/>
</svg>